<?xml version="1.0" standalone="no"?>
<!DOCTYPE svg PUBLIC "-//W3C//DTD SVG 20010904//EN"
 "http://www.w3.org/TR/2001/REC-SVG-20010904/DTD/svg10.dtd">
<svg version="1.0" xmlns="http://www.w3.org/2000/svg"
 width="200.000000pt" height="200.000000pt" viewBox="0 0 200.000000 200.000000"
 preserveAspectRatio="xMidYMid meet">

<g transform="translate(0.000000,200.000000) scale(0.100000,-0.100000)"
fill="#000000" stroke="none">
<path d="M1405 1938 c-57 -31 -58 -68 -5 -176 l39 -82 -41 -67 c-23 -38 -43
-70 -45 -72 -1 -2 -24 10 -50 27 -74 47 -170 89 -258 113 -106 28 -279 31
-385 5 -98 -24 -260 -102 -335 -163 -138 -112 -244 -281 -286 -458 -28 -119
-23 -313 11 -420 98 -309 344 -525 656 -580 109 -19 169 -19 279 0 308 54 554
271 650 575 37 114 45 280 21 400 l-17 83 53 53 53 53 113 15 c63 8 116 17
120 21 3 3 -5 26 -18 50 l-25 45 -80 0 -81 0 -42 86 c-24 48 -41 88 -38 91 2
2 62 20 133 39 70 19 131 38 135 42 4 4 -1 25 -11 48 l-18 40 -174 23 c-95 12
-174 23 -174 24 0 1 -19 41 -43 90 -31 64 -49 90 -68 97 -32 12 -44 12 -69 -2z
m62 -26 c7 -5 72 -132 144 -283 72 -151 136 -280 141 -286 7 -9 38 -13 89 -13
67 0 80 -3 89 -19 5 -11 10 -22 10 -24 0 -2 -46 -10 -103 -16 l-103 -12 -81
-75 -81 -74 -7 30 c-6 26 0 37 39 84 25 29 46 60 46 68 0 9 -58 138 -130 288
-71 150 -130 280 -130 288 0 36 47 63 77 44z m313 -217 c90 -12 129 -21 138
-32 6 -9 12 -19 12 -22 0 -7 -250 -75 -254 -70 -9 10 -66 130 -66 139 0 6 10
8 23 6 12 -3 78 -12 147 -21z m-867 -22 l38 -6 -7 -41 c-19 -120 -71 -170
-283 -280 -182 -94 -232 -131 -271 -199 -40 -69 -38 -98 6 -147 21 -23 34 -46
31 -54 -8 -21 -53 -43 -222 -107 l-150 -56 -3 100 c-9 330 219 648 540 751
120 39 239 53 321 39z m142 -24 c22 -6 61 -20 87 -31 l47 -20 -24 -37 c-31
-46 -49 -99 -64 -185 -16 -93 -55 -165 -143 -266 -84 -96 -98 -118 -98 -153 0
-52 52 -75 266 -116 257 -49 289 -65 324 -163 13 -35 36 -96 53 -136 l29 -73
-57 -74 c-60 -79 -116 -131 -204 -189 l-54 -35 -41 102 c-92 228 -188 337
-328 373 -82 21 -169 14 -239 -19 -30 -14 -97 -59 -149 -101 -89 -72 -199
-136 -233 -136 -19 0 -88 107 -120 187 -32 78 -52 162 -41 173 5 5 74 33 155
63 256 96 277 117 203 199 -43 48 -42 76 5 140 40 54 76 79 222 153 239 122
283 163 317 290 18 71 21 72 87 54z m434 -75 c17 -36 31 -70 31 -74 0 -5 -33
-32 -72 -61 -40 -29 -87 -63 -105 -76 l-32 -24 -11 21 c-10 18 -5 32 36 98 83
133 114 182 118 182 2 0 18 -30 35 -66z m-213 -25 c27 -17 51 -33 53 -35 2 -2
-13 -31 -34 -65 l-38 -62 22 -44 c24 -50 22 -50 111 17 l55 41 31 -37 c17 -20
44 -60 59 -89 l29 -52 -22 -27 c-20 -27 -21 -29 -5 -69 22 -58 29 -64 52 -43
19 17 20 17 31 -21 20 -68 24 -240 7 -328 -15 -77 -46 -174 -67 -205 -14 -21
-21 -8 -66 117 -26 74 -44 110 -65 127 -41 35 -122 63 -252 87 -138 26 -257
57 -274 71 -27 22 -13 56 53 129 37 41 80 94 97 119 38 54 76 146 77 180 0 64
63 220 88 220 5 0 30 -14 58 -31z m309 -177 c36 -79 37 -83 20 -102 -17 -19
-18 -17 -65 54 -26 41 -54 77 -61 81 -8 6 -2 16 22 36 19 15 37 25 40 21 4 -4
24 -44 44 -90z m-691 -771 c60 -26 136 -105 183 -189 42 -75 103 -218 103
-244 0 -20 -121 -62 -230 -79 -233 -36 -511 60 -678 234 l-33 34 73 35 c40 19
116 69 168 110 99 78 144 106 195 119 50 13 169 3 219 -20z"/>
<path d="M1434 1866 c-6 -16 92 -216 106 -216 6 0 10 5 10 10 0 16 -97 220
-105 220 -3 0 -8 -6 -11 -14z"/>
<path d="M1565 1591 c-7 -13 72 -171 85 -171 16 0 12 12 -24 93 -35 76 -50 95
-61 78z"/>
</g>
</svg>
